control3min_grf.mot
version=1
nRows=22
nColumns 19
inDegrees=yes
endheader
time	1_ground_force_vx	1_ground_force_vy	1_ground_force_vz	1_ground_force_px	1_ground_force_py	1_ground_force_pz	1_ground_torque_x	1_ground_torque_y	1_ground_torque_z	2_ground_force_vx	2_ground_force_vy	2_ground_force_vz	2_ground_force_px	2_ground_force_py	2_ground_force_pz	2_ground_torque_x	2_ground_torque_y	2_ground_torque_z
            3.751500	           -3.246561	          528.414679	          -10.933213	           -0.290343	            0.006263	           -0.417125	            0.005022	           -0.817378	            0.016912	          -14.194374	          509.209200	           29.979548	           -0.266824	            0.005383	           -0.659141	           -0.025369	            0.910086	            0.053581
            3.752000	           -2.970043	          522.285171	          -10.822608	           -0.290522	            0.006264	           -0.417364	            0.004745	           -0.834401	            0.017290	          -13.799800	          503.687427	           29.584252	           -0.266871	            0.005382	           -0.659056	           -0.026080	            0.951905	            0.055910
            3.752500	           -2.556942	          517.598872	          -10.981297	           -0.290173	            0.006263	           -0.416998	            0.004501	           -0.911132	            0.019330	          -13.407721	          498.900939	           29.567009	           -0.266526	            0.005384	           -0.659263	           -0.026048	            0.969254	            0.057442
            3.753000	           -2.554912	          511.468327	          -10.640730	           -0.290010	            0.006263	           -0.417037	            0.004851	           -0.971113	            0.020203	          -13.390626	          494.114605	           29.127572	           -0.266713	            0.005383	           -0.659173	           -0.028086	            1.036371	            0.061093
            3.753500	           -2.324399	          504.978611	          -10.623270	           -0.290118	            0.006263	           -0.417148	            0.004050	           -0.879941	            0.018511	          -12.902332	          488.593003	           28.779165	           -0.266447	            0.005385	           -0.659352	           -0.027393	            1.037320	            0.061100
            3.754000	           -2.231121	          498.127943	          -10.515302	           -0.290133	            0.006265	           -0.417597	            0.003706	           -0.827406	            0.017466	          -12.600692	          482.885914	           28.617892	           -0.266616	            0.005384	           -0.659235	           -0.026570	            1.018238	            0.060345
            3.754500	           -1.772015	          493.801852	          -10.580847	           -0.289979	            0.006264	           -0.417280	            0.002830	           -0.788624	            0.016898	          -12.348559	          477.915280	           28.459267	           -0.266539	            0.005385	           -0.659345	           -0.026134	            1.011447	            0.060230
            3.755000	           -1.632555	          488.212039	          -10.238303	           -0.290157	            0.006264	           -0.417337	            0.002996	           -0.895855	            0.018787	          -12.045548	          471.839514	           28.390537	           -0.266545	            0.005383	           -0.658932	           -0.026165	            1.024910	            0.061669
            3.755500	           -1.401994	          482.082657	          -10.173441	           -0.289769	            0.006263	           -0.417137	            0.002794	           -0.960753	            0.020275	          -11.746668	          466.869886	           27.997252	           -0.266388	            0.005385	           -0.659365	           -0.026534	            1.054591	            0.063242
            3.756000	           -1.034359	          475.954088	          -10.292344	           -0.289789	            0.006264	           -0.417382	            0.001967	           -0.905323	            0.019577	          -11.353404	          461.716289	           27.650198	           -0.266363	            0.005385	           -0.659290	           -0.026263	            1.068047	            0.063961
            3.756500	           -1.078400	          469.823867	          -10.043375	           -0.289652	            0.006265	           -0.417478	            0.002262	           -0.985487	            0.021067	          -10.911254	          456.010042	           27.395009	           -0.266465	            0.005384	           -0.659085	           -0.026459	            1.105792	            0.066431
            3.757000	           -0.618920	          465.316951	           -9.972125	           -0.289624	            0.006263	           -0.417030	            0.001219	           -0.916201	            0.019635	          -10.564113	          450.671572	           27.188103	           -0.266353	            0.005384	           -0.659052	           -0.023031	            0.982518	            0.059273
            3.757500	           -0.250650	          458.826868	           -9.863294	           -0.289725	            0.006264	           -0.417225	            0.000456	           -0.835572	            0.017962	          -10.407715	          446.253356	           26.937633	           -0.266403	            0.005386	           -0.659471	           -0.024177	            1.036648	            0.062576
            3.758000	           -0.203837	          454.139773	           -9.837649	           -0.289596	            0.006262	           -0.416829	            0.000369	           -0.822935	            0.017827	          -10.104827	          440.178656	           26.587334	           -0.266101	            0.005385	           -0.659029	           -0.023408	            1.019678	            0.061590
            3.758500	           -0.156956	          447.830649	           -9.910673	           -0.289465	            0.006263	           -0.417061	            0.000315	           -0.897705	            0.019867	           -9.851304	          434.839177	           26.568179	           -0.265959	            0.005385	           -0.659001	           -0.023759	            1.048712	            0.064075
            3.759000	            0.119853	          442.601652	           -9.612780	           -0.289421	            0.006262	           -0.416699	           -0.000249	           -0.917893	            0.019936	           -9.598671	          429.685741	           26.033473	           -0.266200	            0.005384	           -0.658920	           -0.025530	            1.142839	            0.069241
            3.759500	            0.120615	          435.932578	           -9.824803	           -0.289464	            0.006264	           -0.417298	           -0.000266	           -0.962472	            0.021692	           -9.206613	          424.899421	           25.969302	           -0.266045	            0.005386	           -0.659202	           -0.023619	            1.090044	            0.066622
            3.760000	            0.579936	          429.804027	           -9.943933	           -0.289212	            0.006265	           -0.417398	           -0.001283	           -0.950500	            0.021991	           -8.951136	          419.007855	           25.854320	           -0.265802	            0.005385	           -0.658720	           -0.023290	            1.090206	            0.067270
            3.760500	            0.765077	          423.854146	           -9.694761	           -0.289481	            0.006265	           -0.417569	           -0.001517	           -0.840357	            0.019221	           -8.841006	          414.405938	           25.415501	           -0.265954	            0.005385	           -0.659001	           -0.024501	            1.148435	            0.070433
            3.761000	            0.995944	          419.165906	           -9.394435	           -0.289319	            0.006263	           -0.416983	           -0.001979	           -0.832742	            0.018664	           -8.447659	          409.251671	           25.256160	           -0.266046	            0.005384	           -0.658723	           -0.022057	            1.068588	            0.065946
            3.761500	            0.950600	          413.938949	           -9.600161	           -0.289122	            0.006263	           -0.417099	           -0.001890	           -0.822802	            0.019083	           -8.148739	          404.281708	           24.956731	           -0.265716	            0.005387	           -0.659079	           -0.021420	            1.062690	            0.065601
            3.762000	            1.319098	          407.448472	           -9.399618	           -0.289329	            0.006264	           -0.417264	           -0.002863	           -0.884478	            0.020404	           -7.940880	          398.574951	           24.607786	           -0.265864	            0.005383	           -0.658275	           -0.021152	            1.061678	            0.065547
